<svg width="355" height="41" viewBox="0 0 355 41" fill="none" xmlns="http://www.w3.org/2000/svg">
<path d="M19.5504 39.5372H31.8914C32.8228 39.5372 33.4437 38.6105 33.0556 37.7611L15.8248 1.62164C15.5919 1.08109 15.0486 0.772209 14.4277 0.772209H2.24188C1.31048 0.772209 0.689551 1.69886 1.07763 2.54829L18.3861 38.8422C18.619 39.2283 19.0847 39.5372 19.5504 39.5372Z" fill="white"/>
<path d="M31.969 39.5372H19.4728C19.1623 39.5372 18.9295 39.1511 19.0847 38.8422L36.7813 1.69886C37.0917 1.08109 37.635 0.772209 38.3336 0.772209H50.2089C51.2179 0.772209 51.9165 1.8533 51.4508 2.70274L34.6856 37.8383C34.1423 38.8422 33.1333 39.5372 31.969 39.5372Z" fill="#009640"/>
<path d="M58.5915 39.5372C58.2034 39.5372 57.893 39.3827 57.6601 39.0739C57.4273 38.765 57.272 38.4561 57.272 38.07V2.23941C57.272 1.8533 57.4273 1.4672 57.6601 1.23554C57.9706 0.926651 58.281 0.772209 58.5915 0.772209H67.8279C68.216 0.772209 68.5264 0.926651 68.7593 1.23554C68.9921 1.54442 69.1474 1.8533 69.1474 2.23941V38.07C69.1474 38.4561 68.9921 38.8422 68.7593 39.0739C68.5264 39.3827 68.216 39.5372 67.8279 39.5372H58.5915V39.5372Z" fill="white"/>
<path d="M89.4829 25.7918V37.9928C89.4829 38.3789 89.3277 38.765 89.0172 38.9966C88.7068 39.3055 88.3187 39.46 87.9306 39.46H76.909C76.521 39.46 76.1329 39.3055 75.9 38.9966C75.5896 38.6878 75.4343 38.3789 75.4343 37.9928V2.23941C75.4343 1.8533 75.5896 1.4672 75.9 1.23554C76.1329 0.926651 76.521 0.772209 76.909 0.772209H101.902C106.17 0.772209 109.586 1.69886 112.225 3.62939C115.019 5.63714 116.416 8.33987 116.416 11.6604C116.416 15.4442 115.252 18.147 113.001 19.8458C112.457 20.3091 111.759 20.6952 111.06 21.0814C110.284 21.4675 109.508 21.7763 108.577 22.0852C109.663 22.6258 110.517 23.2435 111.293 23.9385C112.069 24.6335 112.69 25.2513 113.156 25.9463L119.986 37.375C120.297 37.9155 120.374 38.4561 120.064 38.9194C119.753 39.3827 119.288 39.6144 118.667 39.6144H106.015C105.782 39.6144 105.472 39.5372 105.239 39.3827C105.006 39.2283 104.773 38.9966 104.696 38.765L98.3312 27.0274L98.4088 27.1046C98.2536 26.9502 98.0984 26.7957 98.0207 26.6413C97.8655 26.4868 97.7103 26.3324 97.555 26.2552C97.3222 26.0235 96.2356 25.9463 94.4504 25.9463H89.4829V25.7918ZM89.1724 9.57541V16.9886H95.1489C97.555 16.9886 99.4178 16.6798 100.66 16.1392C101.902 15.5987 102.522 14.5948 102.522 13.1276C102.522 11.892 102.057 11.0426 101.048 10.4248C100.116 9.8843 98.7193 9.57541 96.8565 9.57541H89.1724Z" fill="white"/>
<path d="M135.82 39.5372C135.432 39.5372 135.044 39.3827 134.811 39.0739C134.5 38.765 134.345 38.4561 134.345 38.07V10.5021H124.022C123.556 10.5021 123.246 10.3476 122.936 10.0387C122.625 9.72985 122.547 9.34375 122.547 8.95764V2.23941C122.547 1.8533 122.703 1.4672 122.936 1.23554C123.246 0.926651 123.556 0.772209 124.022 0.772209H158.406C158.872 0.772209 159.182 0.926651 159.493 1.23554C159.803 1.54442 159.959 1.8533 159.959 2.23941V8.95764C159.959 9.42097 159.803 9.72985 159.493 10.0387C159.182 10.3476 158.794 10.5021 158.406 10.5021H148.161V38.07C148.161 38.4561 148.006 38.8422 147.773 39.0739C147.462 39.3827 147.152 39.5372 146.686 39.5372H135.82Z" fill="white"/>
<path d="M192.946 2.16219C192.946 1.77609 193.101 1.38998 193.411 1.15832C193.722 0.849434 194.11 0.694992 194.498 0.694992H204.743C205.132 0.694992 205.52 0.849434 205.752 1.15832C206.063 1.4672 206.218 1.77609 206.218 2.16219V27.259C206.218 32.0467 204.355 35.4445 200.707 37.375C197.292 39.1511 192.402 40.0777 185.96 40.0777C179.363 40.0777 174.395 39.1511 171.213 37.375C167.643 35.3673 165.858 31.8151 165.858 26.7185V2.16219C165.858 1.77609 166.013 1.38998 166.323 1.15832C166.634 0.926655 167.022 0.694992 167.41 0.694992H177.578C178.043 0.694992 178.354 0.849434 178.664 1.15832C178.975 1.4672 179.13 1.77609 179.13 2.16219V22.5486C179.13 24.788 179.673 26.4096 180.76 27.4135C181.847 28.3401 183.632 28.8807 186.193 28.8807C188.599 28.8807 190.307 28.3401 191.393 27.3363C192.48 26.3324 192.946 24.7107 192.946 22.3941V2.16219V2.16219Z" fill="white"/>
<path d="M253.331 35.2128C249.373 38.5333 243.552 40.155 235.868 40.155C228.184 40.155 222.362 38.5333 218.404 35.2128C214.445 31.8923 212.505 26.8729 212.505 20.1547C212.505 13.3592 214.445 8.33988 218.404 5.01937C222.362 1.69887 228.184 0.0772247 235.868 0.0772247C243.552 0.0772247 249.373 1.69887 253.331 5.01937C257.29 8.33988 259.23 13.3592 259.23 20.1547C259.308 26.8729 257.29 31.8923 253.331 35.2128ZM243.008 13.6681C241.378 12.2009 238.972 11.5059 235.868 11.5059C232.763 11.5059 230.357 12.2009 228.727 13.6681C227.097 15.1353 226.321 17.2203 226.321 20.0775C226.321 22.9347 227.097 25.0196 228.727 26.4868C230.357 27.954 232.685 28.649 235.868 28.649C238.972 28.649 241.378 27.954 243.008 26.4868C244.638 25.0196 245.492 22.9347 245.492 20.0775C245.492 17.2203 244.638 15.1353 243.008 13.6681Z" fill="white"/>
<path d="M298.427 32.6645C297.65 34.2862 296.486 35.6761 294.934 36.7572C293.459 37.8383 291.596 38.6878 289.423 39.3055C287.25 39.8461 284.844 40.155 282.049 40.155C280.575 40.155 279.178 40.0777 277.703 40.0005C276.228 39.8461 274.831 39.6916 273.434 39.46C273.124 39.3827 272.813 39.3827 272.58 39.3055C272.347 39.3055 272.037 39.2283 271.804 39.1511V39.2283C270.873 39.0739 270.019 38.9194 269.32 38.765C268.622 38.6105 268.156 38.5333 267.768 38.4561C267.458 38.3789 267.225 38.2244 266.992 37.9928C266.759 37.7611 266.604 37.4522 266.604 37.1433L265.828 27.7224C265.75 27.1046 265.983 26.6413 266.449 26.3324C266.914 26.0235 267.458 26.0235 268.001 26.2552C269.631 27.0274 271.882 27.954 274.754 28.9579C277.703 29.9618 280.42 30.4251 282.826 30.4251C284.3 30.4251 285.542 30.2707 286.396 29.8846C287.327 29.4984 287.793 28.9579 287.793 28.2629C287.793 27.8768 287.56 27.5679 287.017 27.1818C286.163 26.6413 284.223 26.1007 281.118 25.483C275.374 24.3246 271.416 22.8574 269.165 21.0041C266.759 18.9964 265.517 16.2164 265.517 12.6643C265.517 8.49432 266.992 5.32825 269.941 3.24328C272.891 1.08109 277.082 0 282.36 0C284.688 0 287.172 0.231663 289.734 0.69499C290.975 0.926653 292.062 1.15832 293.071 1.31276C294.002 1.54442 294.779 1.69886 295.4 1.93053C295.632 2.00775 295.943 2.16219 296.098 2.39385C296.331 2.62552 296.409 2.9344 296.486 3.16606L297.495 11.8148C297.573 12.4326 297.34 12.8959 296.874 13.282C296.409 13.5909 295.865 13.6681 295.322 13.3592C294.313 12.8959 293.226 12.4326 292.062 11.9693C290.898 11.5059 289.734 11.1198 288.569 10.811C286.086 10.116 283.912 9.80708 281.972 9.80708C280.497 9.80708 279.333 9.96152 278.479 10.116C277.703 10.3476 277.237 10.7337 277.237 11.2743C277.237 11.8148 277.625 12.2009 278.479 12.5098C279.255 12.7415 280.187 13.0504 281.273 13.3592C282.36 13.6681 283.679 13.977 285.154 14.2087C290.51 15.2898 294.235 16.757 296.176 18.7647C298.427 20.8497 299.513 23.5524 299.513 26.8729C299.668 29.1123 299.28 30.9656 298.427 32.6645Z" fill="white"/>
<path d="M335.45 0.772209H323.109C322.177 0.772209 321.556 1.69886 321.944 2.54829L339.175 38.6105C339.408 39.1511 339.951 39.46 340.572 39.46H352.758C353.69 39.46 354.311 38.5333 353.922 37.6839L336.614 1.38998C336.304 1.00387 335.915 0.772209 335.45 0.772209Z" fill="white"/>
<path d="M323.031 0.772209H335.527C335.838 0.772209 336.071 1.15831 335.915 1.4672L318.219 38.6105C317.908 39.2283 317.365 39.5372 316.666 39.5372H304.791C303.782 39.5372 303.084 38.4561 303.549 37.6067L320.314 2.47107C320.78 1.38998 321.867 0.772209 323.031 0.772209Z" fill="#009640"/>
</svg>
